<mxfile host="www.draw.io" modified="2020-03-06T04:57:14.299Z" agent="Mozilla/5.0 (Windows NT 10.0; Win64; x64) AppleWebKit/537.36 (KHTML, like Gecko) Chrome/80.0.3987.132 Safari/537.36" etag="hflG8hmD8ga2YhKq8a_x" version="12.8.1" type="github">
  <diagram id="qDoVXirh6mWsyjujtK-E" name="Page-1">
    <mxGraphModel dx="868" dy="450" grid="1" gridSize="10" guides="1" tooltips="1" connect="1" arrows="1" fold="1" page="1" pageScale="1" pageWidth="1169" pageHeight="827" math="0" shadow="0">
      <root>
        <mxCell id="0" />
        <mxCell id="1" parent="0" />
        <mxCell id="WAkQHWm9UDTdCvNa_TQH-1" value="" style="edgeStyle=orthogonalEdgeStyle;rounded=0;orthogonalLoop=1;jettySize=auto;html=1;" edge="1" parent="1" source="WAkQHWm9UDTdCvNa_TQH-2" target="WAkQHWm9UDTdCvNa_TQH-4">
          <mxGeometry relative="1" as="geometry" />
        </mxCell>
        <mxCell id="WAkQHWm9UDTdCvNa_TQH-2" value="Get the number of adults, seniors and children and base price from Main process" style="rounded=0;whiteSpace=wrap;html=1;" vertex="1" parent="1">
          <mxGeometry x="125" y="150" width="130" height="60" as="geometry" />
        </mxCell>
        <mxCell id="WAkQHWm9UDTdCvNa_TQH-3" value="" style="edgeStyle=orthogonalEdgeStyle;rounded=0;orthogonalLoop=1;jettySize=auto;html=1;" edge="1" parent="1" source="WAkQHWm9UDTdCvNa_TQH-4" target="WAkQHWm9UDTdCvNa_TQH-6">
          <mxGeometry relative="1" as="geometry" />
        </mxCell>
        <mxCell id="WAkQHWm9UDTdCvNa_TQH-4" value="Get base_price" style="rounded=0;whiteSpace=wrap;html=1;" vertex="1" parent="1">
          <mxGeometry x="110" y="260" width="160" height="90" as="geometry" />
        </mxCell>
        <mxCell id="WAkQHWm9UDTdCvNa_TQH-5" value="" style="edgeStyle=orthogonalEdgeStyle;rounded=0;orthogonalLoop=1;jettySize=auto;html=1;" edge="1" parent="1" source="WAkQHWm9UDTdCvNa_TQH-6" target="WAkQHWm9UDTdCvNa_TQH-10">
          <mxGeometry relative="1" as="geometry" />
        </mxCell>
        <mxCell id="WAkQHWm9UDTdCvNa_TQH-6" value="Output result and go to main process" style="rounded=0;whiteSpace=wrap;html=1;" vertex="1" parent="1">
          <mxGeometry x="130" y="400" width="120" height="60" as="geometry" />
        </mxCell>
        <mxCell id="WAkQHWm9UDTdCvNa_TQH-7" value="DISCOUNT PROCESS" style="text;html=1;align=center;verticalAlign=middle;resizable=0;points=[];autosize=1;" vertex="1" parent="1">
          <mxGeometry x="120" y="14" width="140" height="20" as="geometry" />
        </mxCell>
        <mxCell id="WAkQHWm9UDTdCvNa_TQH-8" value="" style="edgeStyle=orthogonalEdgeStyle;rounded=0;orthogonalLoop=1;jettySize=auto;html=1;" edge="1" parent="1" source="WAkQHWm9UDTdCvNa_TQH-9" target="WAkQHWm9UDTdCvNa_TQH-2">
          <mxGeometry relative="1" as="geometry" />
        </mxCell>
        <mxCell id="WAkQHWm9UDTdCvNa_TQH-9" value="START" style="ellipse;whiteSpace=wrap;html=1;" vertex="1" parent="1">
          <mxGeometry x="130" y="40" width="120" height="80" as="geometry" />
        </mxCell>
        <mxCell id="WAkQHWm9UDTdCvNa_TQH-10" value="END" style="ellipse;whiteSpace=wrap;html=1;" vertex="1" parent="1">
          <mxGeometry x="130" y="500" width="120" height="80" as="geometry" />
        </mxCell>
        <mxCell id="WAkQHWm9UDTdCvNa_TQH-11" value="Nu" style="rhombus;whiteSpace=wrap;html=1;" vertex="1" parent="1">
          <mxGeometry x="320" y="330" width="80" height="80" as="geometry" />
        </mxCell>
      </root>
    </mxGraphModel>
  </diagram>
</mxfile>
